<svg id="Ebene_1" data-name="Ebene 1" xmlns="http://www.w3.org/2000/svg" xmlns:xlink="http://www.w3.org/1999/xlink" viewBox="0 0 24 24"><defs><clipPath id="clip-path"><rect x="14" width="10" height="24" style="fill:none"/></clipPath></defs><title>airmouse_indicator_up</title><circle cx="12" cy="12" r="12" style="fill:#3c3c3b"/><g style="opacity:0.5"><circle cx="14" cy="4.21565" r="2.25" style="fill:#fff"/><circle cx="20" cy="12" r="2.25" style="fill:#fff"/><circle cx="14" cy="19.78435" r="2.25" style="fill:#fff"/><g style="clip-path:url(#clip-path)"><circle cx="12" cy="12" r="8" style="fill:none;stroke:#fff;stroke-miterlimit:10"/></g></g><g id="up"><circle cx="14" cy="19.75716" r="3" style="fill:#fff"/><path id="hand-up" d="M8.08321,5.47a.94736.94736,0,0,0-.6321.2324.8694.8694,0,0,0-.23963.37889.97017.97017,0,0,0-1.14844.0823.92578.92578,0,0,0-.2939.69719v.57874a.97727.97727,0,0,0-.4648-.11755.93827.93827,0,0,0-.62848.2324.92018.92018,0,0,0-.2975.69359v5.55411c0,1.21221.45861,2.36329.4639,3.45346v.48288a.23146.23146,0,0,0,.23149.23149h2.239a.23151.23151,0,0,1,.25139-.2342h.50549v-.87082H7.56415a.23151.23151,0,0,1-.228-.235l.00008-.00375H5.26185a27.71861,27.71861,0,0,1-.4187-2.82407V8.248a.42716.42716,0,0,1,.14017-.34816.48632.48632,0,0,1,.321-.11665A.496.496,0,0,1,5.629,7.8998a.42723.42723,0,0,1,.14016.34816v3.24a.23151.23151,0,1,0,.4621,0V6.86078a.42913.42913,0,0,1,.14015-.34905A.49531.49531,0,0,1,6.696,6.396a.48561.48561,0,0,1,.321.11574.42911.42911,0,0,1,.14016.34905v4.39483a.23241.23241,0,0,0,.46481,0V6.396a.42788.42788,0,0,1,.13655-.34907.51316.51316,0,0,1,.64928,0A.42925.42925,0,0,1,8.548,6.396v3.93363a.23316.23316,0,0,0,0,.03526v.65833a.23151.23151,0,1,0,.46119,0V10.3667a.23184.23184,0,0,0,0-.03708V7.55437a.427.427,0,0,1,.14015-.34814.48865.48865,0,0,1,.32193-.11667.49592.49592,0,0,1,.32464.11667.42716.42716,0,0,1,.14016.34814v4.78456c-.05211.03105-.0824.05752-.13745.08953a3.87289,3.87289,0,0,0-1.46584,1.1819.23153.23153,0,0,0,.39024.24927L8.72886,13.85A3.72968,3.72968,0,0,1,10.031,12.82815a4.91217,4.91217,0,0,0,.69721-.45847.87305.87305,0,0,0,.36622-.64928V10.562a.42594.42594,0,0,1,.13656-.34816.52275.52275,0,0,1,.64927,0,.42723.42723,0,0,1,.14016.34816v2.31406A3.96941,3.96941,0,0,1,10.91361,14.814a5.61959,5.61959,0,0,0-1.12132,1.81128H8.52087l.01.01V17.9681l-.00182.0018H9.93517a.21958.21958,0,0,0,.217-.23149v-.47566a3.80753,3.80753,0,0,1,1.1195-2.1549,3.96914,3.96914,0,0,0,1.20993-2.23177V10.562a.91791.91791,0,0,0-.2939-.69359.97578.97578,0,0,0-1.26417,0,.91759.91759,0,0,0-.2939.69359V11.7204c0,.07636-.05239.16762-.20166.29389-.00733.0062-.023.01455-.03074.02081V7.55437a.91809.91809,0,0,0-.2939-.69359.94756.94756,0,0,0-.63209-.2324.96417.96417,0,0,0-.46208.11756V6.396a.91806.91806,0,0,0-.2939-.69359A.94761.94761,0,0,0,8.08321,5.47Z" style="fill:#fff"/></g></svg>