<svg id="Ebene_1" data-name="Ebene 1" xmlns="http://www.w3.org/2000/svg" xmlns:xlink="http://www.w3.org/1999/xlink" viewBox="0 0 24 24"><defs><clipPath id="clip-path"><rect x="14" width="10" height="24" style="fill:none"/></clipPath></defs><title>airmouse_indicator_side</title><circle cx="12" cy="12" r="12" style="fill:#3c3c3b"/><g style="opacity:0.5"><circle cx="14" cy="4.21565" r="2.25" style="fill:#fff"/><circle cx="20" cy="12" r="2.25" style="fill:#fff"/><circle cx="14" cy="19.78435" r="2.25" style="fill:#fff"/><g style="clip-path:url(#clip-path)"><circle cx="12" cy="12" r="8" style="fill:none;stroke:#fff;stroke-miterlimit:10"/></g></g><g id="side"><path id="hand-side" d="M7.85437,5.39a.95583.95583,0,0,0-.63757.23441.926.926,0,0,0-.29644.69959V7.49241a.23314.23314,0,0,0,0,.03466v2.065a.95578.95578,0,0,0-.63755.2344.93478.93478,0,0,0-.29735.70325v2.09967a20.82941,20.82941,0,0,0-.44056,2.5685c0,.53579.20614,1.23538.20614,1.63357a.23458.23458,0,0,0,0,.02372v.91121a.2335.2335,0,0,0,.2335.23349L7.39011,17.999c.44932.05657.47587.26554.78532.446.03475.01449.06354.02413.09395.03556a1.3137,1.3137,0,0,0,.50166.12679.92148.92148,0,0,0,.33108-.031.50393.50393,0,0,0,.30009-.23167.86846.86846,0,0,0,.07571-.4442c.00706-.17289.0073-.3807.0073-.60017s0-.39267-.0073-.53449a.79893.79893,0,0,0-.07571-.37214.49482.49482,0,0,0-.28276-.22712.83309.83309,0,0,0-.31375-.031l-.01733.00273V6.324a.93587.93587,0,0,0-.30009-.69959A.94635.94635,0,0,0,7.85437,5.39Zm0,.46883a.4878.4878,0,0,1,.32379.114.43077.43077,0,0,1,.14138.35117v.353a.97211.97211,0,0,0-.46517-.11857.9851.9851,0,0,0-.46883.11857V6.324a.43905.43905,0,0,1,.14138-.35117A.49751.49751,0,0,1,7.85437,5.85883Zm0,1.16476a.49044.49044,0,0,1,.32379.11766.43076.43076,0,0,1,.14138.35116v8.74164c-.42174.22132-.49543.53633-1.17389.53633H6.21256c-.01357-.52734-.19883-1.18858-.19883-1.57247,0-1.10885.43782-1.77025.43782-2.5685V10.52974a.4308.4308,0,0,1,.14138-.35118.50021.50021,0,0,1,.32743-.11765.49055.49055,0,0,1,.32381.11765.43083.43083,0,0,1,.14137.35118V13.329a.23442.23442,0,0,0,.46883,0V10.52974a.93636.93636,0,0,0-.3001-.70325.89338.89338,0,0,0-.16873-.11584V7.53073a.23348.23348,0,0,0,0-.03832.43091.43091,0,0,1,.14138-.35116A.50018.50018,0,0,1,7.85437,7.02359Zm.97869,9.57713a.44467.44467,0,0,1,.14138.01c.02586.00848.01927.01089.01733.00729-.00734-.01362.01481.05283.021.1724s.00639.28966.00639.50986,0,.42684-.00639.58283-.04773.28765-.021.23807c.00581-.01076.007-.00423-.02737.00639a.50932.50932,0,0,1-.16509.01368.99457.99457,0,0,1-.24262-.05016,1.7587,1.7587,0,0,1-.02736-.37032v-.68408a1.71835,1.71835,0,0,1,.02736-.37214A1.064,1.064,0,0,1,8.83306,16.60072Z" style="fill:#fff"/><circle id="side-2" data-name="side" cx="20" cy="12" r="3" style="fill:#fff"/></g></svg>