<svg id="Ebene_1" data-name="Ebene 1" xmlns="http://www.w3.org/2000/svg" xmlns:xlink="http://www.w3.org/1999/xlink" viewBox="0 0 24 24"><defs><clipPath id="clip-path"><rect x="14" width="10" height="24" style="fill:none"/></clipPath></defs><title>airmouse_indicator_down</title><circle cx="12" cy="12" r="12" style="fill:#3c3c3b"/><g style="opacity:0.5"><circle cx="14" cy="4.21565" r="2.25" style="fill:#fff"/><circle cx="20" cy="12" r="2.25" style="fill:#fff"/><circle cx="14" cy="19.78435" r="2.25" style="fill:#fff"/><g style="clip-path:url(#clip-path)"><circle cx="12" cy="12" r="8" style="fill:none;stroke:#fff;stroke-miterlimit:10"/></g></g><g id="down"><circle cx="14" cy="4.21565" r="3" style="fill:#fff"/><path id="hand-down" d="M6.90732,5.46946a.93572.93572,0,0,0-.62425.22952.90871.90871,0,0,0-.29024.68588v.33846a.96443.96443,0,0,0-.459-.1161V6.6108a.92887.92887,0,0,0-.62155.22952.909.909,0,0,0-.29382.685v4.41884c-.02707-.02264-.07577-.04984-.09735-.07144a.33723.33723,0,0,1-.1286-.23308V10.49916a.90619.90619,0,0,0-.29024-.685.96365.96365,0,0,0-1.24848,0,.90652.90652,0,0,0-.29025.685v2.26746q-.00034.00894,0,.01787A3.91076,3.91076,0,0,0,3.75841,14.985v.00356a4.13362,4.13362,0,0,1,1.09042,1.97633v.62068a.22856.22856,0,0,0,.22862.22863l.00982-.0009c.79454.09989.99767.68635,1.93883.71713a6.33567,6.33567,0,0,0,.83322-.05c1.37866-.20543,1.41978-.59,2.01919-.66621a.22858.22858,0,0,0,.22862-.22863v-.42062a.22843.22843,0,0,0,0-.03662c0-1.08217.45546-2.22525.45546-3.42933V10.99124a.22843.22843,0,0,0,0-.03662V8.21383a.91431.91431,0,0,0-.29023-.68855.92668.92668,0,0,0-.62069-.2295.96464.96464,0,0,0-.459.11608V6.84032a.90635.90635,0,0,0-.29024-.685.93793.93793,0,0,0-.62515-.22952.9523.9523,0,0,0-.509.14646.8611.8611,0,0,0-.23666-.3733A.93571.93571,0,0,0,6.90732,5.46946Zm0,.45636a.48006.48006,0,0,1,.317.1143.424.424,0,0,1,.13842.34474v4.79928a.22952.22952,0,0,0,.459.00394V6.84032a.424.424,0,0,1,.13843-.34474.47933.47933,0,0,1,.317-.1143.492.492,0,0,1,.32151.1143.42393.42393,0,0,1,.13843.34474v4.57334a.22863.22863,0,1,0,.45545,0V8.21383A.422.422,0,0,1,9.33108,7.87a.4896.4896,0,0,1,.32059-.11519A.48073.48073,0,0,1,9.96872,7.87a.422.422,0,0,1,.13841.34384v2.74079a.22887.22887,0,0,0,0,.03394V13.699c0,.90869-.31852,1.86041-.42152,2.85509a5.70241,5.70241,0,0,0-1.82629-.62245,6.27579,6.27579,0,0,0-.83322-.05269c-.87532.02865-1.11921.53528-1.78522.68675A5.32266,5.32266,0,0,0,4.11294,14.6983l-.00356-.00356A3.91189,3.91189,0,0,1,3.019,12.78449V10.49916a.42391.42391,0,0,1,.13841-.34472.4889.4889,0,0,1,.32061-.11431.48.48,0,0,1,.317.11431.4239.4239,0,0,1,.13843.34472V11.6396a.8008.8008,0,0,0,.26346.55726,2.65963,2.65963,0,0,0,.48582.35812l.00358.00357a.42809.42809,0,0,0,.12145.06429h.00714a.22837.22837,0,0,0,.04734,0q.00669.0002.01339,0a.2283.2283,0,0,0,.04018-.00714h.00358l.00983-.00357.01071-.00714.00982-.00358.01339-.00625.00716-.00356.00981-.00716.00626-.00714.00714-.00267.01339-.01072L5.014,12.5532l.00626-.00626.01072-.01429.01339-.017.00268-.00714.00713-.01339L5.0578,12.488l.00626-.01429.00356-.00624.00358-.01787a.22863.22863,0,0,0,.00715-.09733V7.52172a.42156.42156,0,0,1,.13753-.34384.47966.47966,0,0,1,.31791-.11162.48669.48669,0,0,1,.32061.11162.4217.4217,0,0,1,.13843.34384v2.74435a.22887.22887,0,0,0,0,.03394v.65461a.22864.22864,0,1,0,.45546,0v-.65193a.22843.22843,0,0,0,0-.03662V6.38486a.42405.42405,0,0,1,.13842-.34474A.48888.48888,0,0,1,6.90732,5.92582ZM7.10022,16.229a7.894,7.894,0,0,1,.99576.05269c.35755.05012.35811.37106.35811.568v.71267c0,.19692-.00056.51776-.35811.568a7.62857,7.62857,0,0,1-1.328.04018c-.33231-.03526-.3338-.2665-.33221-.62959v-.66981c-.002-.36309-.0001-.59526.33221-.63048C6.87879,16.23544,6.98934,16.23074,7.10022,16.229Z" style="fill:#fff"/></g></svg>