<?xml version="1.0" encoding="UTF-8" standalone="no"?>
<!-- Created with Inkscape (http://www.inkscape.org/) -->

<svg
   xmlns:dc="http://purl.org/dc/elements/1.1/"
   xmlns:cc="http://creativecommons.org/ns#"
   xmlns:rdf="http://www.w3.org/1999/02/22-rdf-syntax-ns#"
   xmlns:svg="http://www.w3.org/2000/svg"
   xmlns="http://www.w3.org/2000/svg"
   xmlns:sodipodi="http://sodipodi.sourceforge.net/DTD/sodipodi-0.dtd"
   xmlns:inkscape="http://www.inkscape.org/namespaces/inkscape"
   version="1.1"
   id="svg2"
   xml:space="preserve"
   width="130.66667"
   height="130.66667"
   viewBox="0 0 130.66667 130.66667"
   sodipodi:docname="all_gesture_icons_circled.svg"
   inkscape:version="0.92.3 (2405546, 2018-03-11)"><metadata
     id="metadata8"><rdf:RDF><cc:Work
         rdf:about=""><dc:format>image/svg+xml</dc:format><dc:type
           rdf:resource="http://purl.org/dc/dcmitype/StillImage" /><dc:title></dc:title></cc:Work></rdf:RDF></metadata><defs
     id="defs6"><clipPath
       clipPathUnits="userSpaceOnUse"
       id="clipPath18"><path
         d="M 0,98 H 98 V 0 H 0 Z"
         id="path16"
         inkscape:connector-curvature="0" /></clipPath><clipPath
       clipPathUnits="userSpaceOnUse"
       id="clipPath34"><path
         d="M 0,98 H 98 V 0 H 0 Z"
         id="path32"
         inkscape:connector-curvature="0" /></clipPath><clipPath
       clipPathUnits="userSpaceOnUse"
       id="clipPath54"><path
         d="M 0,98 H 98 V 0 H 0 Z"
         id="path52"
         inkscape:connector-curvature="0" /></clipPath><clipPath
       clipPathUnits="userSpaceOnUse"
       id="clipPath94"><path
         d="M 0,98 H 98 V 0 H 0 Z"
         id="path92"
         inkscape:connector-curvature="0" /></clipPath><clipPath
       clipPathUnits="userSpaceOnUse"
       id="clipPath150"><path
         d="M 0,98 H 98 V 0 H 0 Z"
         id="path148"
         inkscape:connector-curvature="0" /></clipPath><clipPath
       clipPathUnits="userSpaceOnUse"
       id="clipPath170"><path
         d="M 0,98 H 98 V 0 H 0 Z"
         id="path168"
         inkscape:connector-curvature="0" /></clipPath><clipPath
       clipPathUnits="userSpaceOnUse"
       id="clipPath202"><path
         d="M 0,98 H 98 V 0 H 0 Z"
         id="path200"
         inkscape:connector-curvature="0" /></clipPath><clipPath
       clipPathUnits="userSpaceOnUse"
       id="clipPath238"><path
         d="M 0,98 H 98 V 0 H 0 Z"
         id="path236"
         inkscape:connector-curvature="0" /></clipPath><clipPath
       clipPathUnits="userSpaceOnUse"
       id="clipPath278"><path
         d="M 0,98 H 98 V 0 H 0 Z"
         id="path276"
         inkscape:connector-curvature="0" /></clipPath><clipPath
       clipPathUnits="userSpaceOnUse"
       id="clipPath314"><path
         d="M 0,98 H 98 V 0 H 0 Z"
         id="path312"
         inkscape:connector-curvature="0" /></clipPath><clipPath
       clipPathUnits="userSpaceOnUse"
       id="clipPath346"><path
         d="M 0,98 H 98 V 0 H 0 Z"
         id="path344"
         inkscape:connector-curvature="0" /></clipPath></defs><sodipodi:namedview
     pagecolor="#ffffff"
     bordercolor="#666666"
     borderopacity="1"
     objecttolerance="10"
     gridtolerance="10"
     guidetolerance="10"
     inkscape:pageopacity="0"
     inkscape:pageshadow="2"
     inkscape:window-width="2560"
     inkscape:window-height="1386"
     id="namedview4"
     showgrid="false"
     inkscape:zoom="9.1989792"
     inkscape:cx="71.529676"
     inkscape:cy="65.333336"
     inkscape:window-x="0"
     inkscape:window-y="0"
     inkscape:window-maximized="1"
     inkscape:current-layer="g10" /><g
     id="g10"
     inkscape:groupmode="layer"
     inkscape:label="all_gesture_icons_circled"
     transform="matrix(1.3333333,0,0,-1.3333333,0,130.66667)"><g
       id="g12"
       style="display:inline"
       inkscape:label="Rahmen"><g
         id="g14"
         clip-path="url(#clipPath18)"><g
           id="g20"
           transform="translate(49.0002,98.0002)"><path
             d="m 0,0 c -27.062,0 -49,-21.938 -49,-49 0,-27.062 21.938,-49 49,-49 27.062,0 49,21.938 49,49 C 49,-21.938 27.062,0 0,0 "
             style="fill:#ffffff;fill-opacity:1;fill-rule:nonzero;stroke:none;stroke-width:2"
             id="path22"
             inkscape:connector-curvature="0" /></g></g></g><g
       id="g164"
       style="display:inline"
       inkscape:label="Circle L"><g
         id="g166"
         clip-path="url(#clipPath170)"><g
           id="g172"
           transform="translate(29.1969,48.8737)"><path
             d="m 0,0 c 3.458,0.078 6.81,1.583 9.133,4.049 2.342,2.451 3.617,5.816 3.516,9.133 -0.079,3.32 -1.524,6.53 -3.893,8.756 -2.355,2.244 -5.577,3.459 -8.756,3.361 -3.183,-0.08 -6.25,-1.468 -8.38,-3.737 -2.145,-2.259 -3.302,-5.339 -3.204,-8.38 0.081,-3.045 1.41,-5.971 3.581,-8.004 C -5.841,3.131 -2.903,2.033 0,2.129 Z m 0,-2.13 c -4.01,0.073 -7.93,1.814 -10.639,4.673 -2.735,2.838 -4.245,6.77 -4.14,10.639 0.074,3.872 1.756,7.65 4.517,10.262 2.741,2.637 6.531,4.088 10.262,3.984 3.734,-0.075 7.37,-1.698 9.886,-4.361 2.539,-2.645 3.93,-6.292 3.828,-9.885 C 13.638,9.585 12.074,6.091 9.509,3.672 6.961,1.232 3.455,-0.102 0,0 Z"
             style="fill:#e8e000;fill-opacity:1;fill-rule:nonzero;stroke:none"
             id="path174"
             inkscape:connector-curvature="0" /></g><g
           id="g176"
           transform="translate(26.2267,55.3547)"><path
             d="m 0,0 6.112,-6.102 -6.327,-6.266 z"
             style="fill:#e8e000;fill-opacity:1;fill-rule:nonzero;stroke:none"
             id="path178"
             inkscape:connector-curvature="0" /></g><g
           id="g180"
           transform="translate(26.2267,55.3547)"><path
             d="m 0,0 6.112,-6.102 -6.327,-6.266 z"
             style="fill:none;stroke:#e8e000;stroke-width:0.18000001;stroke-linecap:square;stroke-linejoin:miter;stroke-miterlimit:10;stroke-dasharray:none;stroke-opacity:1"
             id="path182"
             inkscape:connector-curvature="0" /></g><g
           id="g184"
           transform="translate(58.0817,48.4723)"><path
             d="M 0,0 -2.13,4.385 C -3.587,5.928 -6.252,4.591 -6.252,4.591"
             style="fill:none;stroke:#3b3b3c;stroke-width:1.81400001;stroke-linecap:round;stroke-linejoin:miter;stroke-miterlimit:10;stroke-dasharray:none;stroke-opacity:1"
             id="path186"
             inkscape:connector-curvature="0" /></g><g
           id="g188"
           transform="translate(62.2731,47.924)"><path
             d="m 0,0 c -0.894,1.781 -1.306,2.604 -2.199,4.18 -0.57,1.004 -2.766,1.336 -4.26,1.028"
             style="fill:none;stroke:#3b3b3c;stroke-width:1.81400001;stroke-linecap:round;stroke-linejoin:miter;stroke-miterlimit:10;stroke-dasharray:none;stroke-opacity:1"
             id="path190"
             inkscape:connector-curvature="0" /></g><g
           id="g192"
           transform="translate(54.028,48.7472)"><path
             d="m 0,0 -1.749,3.439 c -1.48,3.618 -8.473,-1.329 -9.776,-2.959 -1.082,-1.353 0.584,-2.568 1.46,-2.381 1.479,0.318 3.52,1.144 3.821,0.264 l 0.765,-3.638 c 0.069,-0.942 0.413,-4.163 0.413,-4.163 0.007,-0.076 -0.611,-1.02 -0.644,-0.95 0,0 -3.152,4.873 -3.255,5.353 -0.244,1.134 -0.466,2.333 -1.34,2.809 -0.378,0.206 -0.594,0.413 -1.409,0.549 -0.697,0.115 -1.319,-0.24 -1.443,-1.097 -0.093,-0.645 -0.779,-2.973 -0.411,-4.693 0.419,-1.96 5.05,-9.935 7.593,-12.128 2.018,-1.74 7.061,-6.155 8.95,-9.422 0.811,-1.403 1.374,-0.894 1.803,0.668 1.211,4.393 11.302,4.777 12.745,-1.184 0.552,-0.757 -2.364,7.001 -2.649,8.839 -0.026,0.172 -0.353,3.424 -0.36,3.597 l 0.307,6.783 c 0,1.131 -1.086,4.276 -1.099,4.316 -0.481,1.44 -0.756,2.878 -1.306,4.42 -0.241,0.677 -1.572,4.137 -5.051,3.906"
             style="fill:none;stroke:#3b3b3c;stroke-width:1.81400001;stroke-linecap:round;stroke-linejoin:miter;stroke-miterlimit:10;stroke-dasharray:none;stroke-opacity:1"
             id="path194"
             inkscape:connector-curvature="0" /></g></g></g></g></svg>