<?xml version="1.0" encoding="UTF-8" standalone="no"?>
<!-- Created with Inkscape (http://www.inkscape.org/) -->

<svg
   xmlns:dc="http://purl.org/dc/elements/1.1/"
   xmlns:cc="http://creativecommons.org/ns#"
   xmlns:rdf="http://www.w3.org/1999/02/22-rdf-syntax-ns#"
   xmlns:svg="http://www.w3.org/2000/svg"
   xmlns="http://www.w3.org/2000/svg"
   xmlns:sodipodi="http://sodipodi.sourceforge.net/DTD/sodipodi-0.dtd"
   xmlns:inkscape="http://www.inkscape.org/namespaces/inkscape"
   version="1.1"
   id="svg2"
   xml:space="preserve"
   width="130.66667"
   height="130.66667"
   viewBox="0 0 130.66667 130.66667"
   sodipodi:docname="all_gesture_icons_circled.svg"
   inkscape:version="0.92.3 (2405546, 2018-03-11)"><metadata
     id="metadata8"><rdf:RDF><cc:Work
         rdf:about=""><dc:format>image/svg+xml</dc:format><dc:type
           rdf:resource="http://purl.org/dc/dcmitype/StillImage" /><dc:title></dc:title></cc:Work></rdf:RDF></metadata><defs
     id="defs6"><clipPath
       clipPathUnits="userSpaceOnUse"
       id="clipPath18"><path
         d="M 0,98 H 98 V 0 H 0 Z"
         id="path16"
         inkscape:connector-curvature="0" /></clipPath><clipPath
       clipPathUnits="userSpaceOnUse"
       id="clipPath34"><path
         d="M 0,98 H 98 V 0 H 0 Z"
         id="path32"
         inkscape:connector-curvature="0" /></clipPath><clipPath
       clipPathUnits="userSpaceOnUse"
       id="clipPath54"><path
         d="M 0,98 H 98 V 0 H 0 Z"
         id="path52"
         inkscape:connector-curvature="0" /></clipPath><clipPath
       clipPathUnits="userSpaceOnUse"
       id="clipPath94"><path
         d="M 0,98 H 98 V 0 H 0 Z"
         id="path92"
         inkscape:connector-curvature="0" /></clipPath><clipPath
       clipPathUnits="userSpaceOnUse"
       id="clipPath150"><path
         d="M 0,98 H 98 V 0 H 0 Z"
         id="path148"
         inkscape:connector-curvature="0" /></clipPath><clipPath
       clipPathUnits="userSpaceOnUse"
       id="clipPath170"><path
         d="M 0,98 H 98 V 0 H 0 Z"
         id="path168"
         inkscape:connector-curvature="0" /></clipPath><clipPath
       clipPathUnits="userSpaceOnUse"
       id="clipPath202"><path
         d="M 0,98 H 98 V 0 H 0 Z"
         id="path200"
         inkscape:connector-curvature="0" /></clipPath><clipPath
       clipPathUnits="userSpaceOnUse"
       id="clipPath238"><path
         d="M 0,98 H 98 V 0 H 0 Z"
         id="path236"
         inkscape:connector-curvature="0" /></clipPath><clipPath
       clipPathUnits="userSpaceOnUse"
       id="clipPath278"><path
         d="M 0,98 H 98 V 0 H 0 Z"
         id="path276"
         inkscape:connector-curvature="0" /></clipPath><clipPath
       clipPathUnits="userSpaceOnUse"
       id="clipPath314"><path
         d="M 0,98 H 98 V 0 H 0 Z"
         id="path312"
         inkscape:connector-curvature="0" /></clipPath><clipPath
       clipPathUnits="userSpaceOnUse"
       id="clipPath346"><path
         d="M 0,98 H 98 V 0 H 0 Z"
         id="path344"
         inkscape:connector-curvature="0" /></clipPath></defs><sodipodi:namedview
     pagecolor="#ffffff"
     bordercolor="#666666"
     borderopacity="1"
     objecttolerance="10"
     gridtolerance="10"
     guidetolerance="10"
     inkscape:pageopacity="0"
     inkscape:pageshadow="2"
     inkscape:window-width="2560"
     inkscape:window-height="1386"
     id="namedview4"
     showgrid="false"
     inkscape:zoom="9.1989792"
     inkscape:cx="71.529676"
     inkscape:cy="65.333336"
     inkscape:window-x="0"
     inkscape:window-y="0"
     inkscape:window-maximized="1"
     inkscape:current-layer="g10" /><g
     id="g10"
     inkscape:groupmode="layer"
     inkscape:label="all_gesture_icons_circled"
     transform="matrix(1.3333333,0,0,-1.3333333,0,130.66667)"><g
       id="g12"
       style="display:inline"
       inkscape:label="Rahmen"><g
         id="g14"
         clip-path="url(#clipPath18)"><g
           id="g20"
           transform="translate(49.0002,98.0002)"><path
             d="m 0,0 c -27.062,0 -49,-21.938 -49,-49 0,-27.062 21.938,-49 49,-49 27.062,0 49,21.938 49,49 C 49,-21.938 27.062,0 0,0 "
             style="fill:#ffffff;fill-opacity:1;fill-rule:nonzero;stroke:none;stroke-width:2"
             id="path22"
             inkscape:connector-curvature="0" /></g></g></g><g
       id="g308"
       style="display:inline"
       inkscape:label="Circle R"><g
         id="g310"
         clip-path="url(#clipPath314)"><g
           id="g316"
           transform="translate(27.6647,49.2135)"><path
             d="m 0,0 c -3.455,-0.101 -6.961,1.232 -9.509,3.672 -2.565,2.42 -4.128,5.913 -4.205,9.51 -0.102,3.593 1.29,7.241 3.828,9.885 2.516,2.663 6.152,4.286 9.886,4.362 3.731,0.103 7.521,-1.348 10.262,-3.985 2.761,-2.612 4.443,-6.39 4.517,-10.262 C 14.884,9.313 13.375,5.381 10.639,2.543 7.93,-0.316 4.011,-2.057 0,-2.13 Z m 0,2.129 c 2.903,-0.096 5.841,1.002 8.003,3.049 2.172,2.033 3.5,4.959 3.581,8.004 0.099,3.041 -1.059,6.121 -3.204,8.38 C 6.25,23.831 3.183,25.219 0,25.299 -3.179,25.397 -6.401,24.182 -8.756,21.938 -11.124,19.712 -12.57,16.502 -12.649,13.182 -12.75,9.865 -11.475,6.501 -9.133,4.049 -6.81,1.583 -3.458,0.078 0,0 Z"
             style="fill:#e8e000;fill-opacity:1;fill-rule:nonzero;stroke:none"
             id="path318"
             inkscape:connector-curvature="0" /></g><g
           id="g320"
           transform="translate(30.6354,55.6945)"><path
             d="m 0,0 -6.112,-6.102 6.327,-6.266 z"
             style="fill:#e8e000;fill-opacity:1;fill-rule:nonzero;stroke:none"
             id="path322"
             inkscape:connector-curvature="0" /></g><g
           id="g324"
           transform="translate(30.6354,55.6945)"><path
             d="m 0,0 -6.112,-6.102 6.327,-6.266 z"
             style="fill:none;stroke:#e8e000;stroke-width:0.18000001;stroke-linecap:square;stroke-linejoin:miter;stroke-miterlimit:10;stroke-dasharray:none;stroke-opacity:1"
             id="path326"
             inkscape:connector-curvature="0" /></g><g
           id="g328"
           transform="translate(57.9987,48.8893)"><path
             d="M 0,0 -2.13,4.385 C -3.587,5.927 -6.253,4.591 -6.253,4.591"
             style="fill:none;stroke:#3b3b3c;stroke-width:1.81400001;stroke-linecap:round;stroke-linejoin:miter;stroke-miterlimit:10;stroke-dasharray:none;stroke-opacity:1"
             id="path330"
             inkscape:connector-curvature="0" /></g><g
           id="g332"
           transform="translate(62.1901,48.3405)"><path
             d="m 0,0 c -0.894,1.782 -1.306,2.604 -2.199,4.18 -0.57,1.004 -2.766,1.336 -4.26,1.028"
             style="fill:none;stroke:#3b3b3c;stroke-width:1.81400001;stroke-linecap:round;stroke-linejoin:miter;stroke-miterlimit:10;stroke-dasharray:none;stroke-opacity:1"
             id="path334"
             inkscape:connector-curvature="0" /></g><g
           id="g336"
           transform="translate(53.945,49.1637)"><path
             d="m 0,0 -1.749,3.439 c -1.48,3.619 -8.474,-1.329 -9.776,-2.958 -1.082,-1.353 0.584,-2.57 1.46,-2.381 1.479,0.318 3.52,1.143 3.821,0.263 l 0.765,-3.638 c 0.069,-0.942 0.413,-4.163 0.413,-4.163 0.007,-0.076 -0.612,-1.019 -0.644,-0.95 0,0 -3.152,4.873 -3.256,5.353 -0.243,1.134 -0.465,2.334 -1.34,2.809 -0.378,0.205 -0.593,0.414 -1.408,0.548 -0.697,0.116 -1.32,-0.24 -1.443,-1.095 -0.093,-0.646 -0.78,-2.973 -0.412,-4.694 0.42,-1.961 5.051,-9.935 7.594,-12.128 2.018,-1.741 7.06,-6.154 8.95,-9.422 0.811,-1.403 1.373,-0.894 1.803,0.668 1.21,4.394 11.302,4.778 12.745,-1.183 0.552,-0.757 -2.364,7 -2.649,8.839 -0.026,0.171 -0.353,3.422 -0.361,3.596 l 0.308,6.784 c 0,1.129 -1.086,4.275 -1.099,4.316 -0.482,1.438 -0.756,2.878 -1.306,4.419 -0.241,0.677 -1.572,4.137 -5.051,3.906"
             style="fill:none;stroke:#3b3b3c;stroke-width:1.81400001;stroke-linecap:round;stroke-linejoin:miter;stroke-miterlimit:10;stroke-dasharray:none;stroke-opacity:1"
             id="path338"
             inkscape:connector-curvature="0" /></g></g></g></g></svg>