<svg id="Ebene_1" data-name="Ebene 1" xmlns="http://www.w3.org/2000/svg" viewBox="0 0 24 24"><title>move</title><path id="move_indicator" data-name="move indicator" d="M15.5,4.21565a.10294.10294,0,0,1-.03181.07533l-.42857.42857a.10715.10715,0,0,1-.18248-.07533V4.42993h-.64285v.64286h.21428a.10655.10655,0,0,1,.07534.18248l-.42858.42857a.1051.1051,0,0,1-.15066,0l-.42858-.42857a.10715.10715,0,0,1,.07534-.18248h.21428V4.42993h-.64285v.21429a.10654.10654,0,0,1-.18248.07533L12.53181,4.291a.10511.10511,0,0,1,0-.15067l.42857-.42857a.10715.10715,0,0,1,.18248.07534v.21428h.64285V3.3585h-.21428a.10654.10654,0,0,1-.07534-.18247l.42858-.42857a.1051.1051,0,0,1,.15066,0l.42858.42857a.10714.10714,0,0,1-.07534.18247h-.21428v.64286h.64285V3.78708a.10654.10654,0,0,1,.18248-.07534l.42857.42857A.103.103,0,0,1,15.5,4.21565Z" style="fill:#3c3c3b"/></svg>