<svg id="Ebene_1" data-name="Ebene 1" xmlns="http://www.w3.org/2000/svg" viewBox="0 0 24 24"><title>move_selected</title><path id="move_indicator_selected" data-name="move indicator_selected" d="M15.75,4.21565a.12013.12013,0,0,1-.03711.08789l-.5.5A.125.125,0,0,1,15,4.71565v-.25h-.75v.75h.25a.1243.1243,0,0,1,.08789.21289l-.5.5a.12263.12263,0,0,1-.17578,0l-.5-.5A.125.125,0,0,1,13.5,5.21565h.25v-.75H13v.25a.1243.1243,0,0,1-.21289.08789l-.5-.5a.12263.12263,0,0,1,0-.17578l.5-.5A.125.125,0,0,1,13,3.71565v.25h.75v-.75H13.5a.1243.1243,0,0,1-.08789-.21289l.5-.5a.12263.12263,0,0,1,.17578,0l.5.5A.125.125,0,0,1,14.5,3.21565h-.25v.75H15v-.25a.1243.1243,0,0,1,.21289-.08789l.5.5A.12012.12012,0,0,1,15.75,4.21565Z" style="fill:#3c3c3b"/></svg>