<svg id="Ebene_1" data-name="Ebene 1" xmlns="http://www.w3.org/2000/svg" viewBox="0 0 24 24"><title>side_move</title><path id="move_indicator" data-name="move indicator" d="M21.5,12a.10293.10293,0,0,1-.03181.07533l-.42857.42858a.10715.10715,0,0,1-.18248-.07534v-.21428h-.64285v.64285h.21428a.10655.10655,0,0,1,.07534.18248l-.42858.42857a.1051.1051,0,0,1-.15066,0l-.42858-.42857a.10715.10715,0,0,1,.07534-.18248h.21428v-.64285h-.64285v.21428a.10655.10655,0,0,1-.18248.07534l-.42857-.42858a.1051.1051,0,0,1,0-.15066l.42857-.42858a.10715.10715,0,0,1,.18248.07534v.21428h.64285v-.64285h-.21428a.10655.10655,0,0,1-.07534-.18248l.42858-.42857a.1051.1051,0,0,1,.15066,0l.42858.42857a.10715.10715,0,0,1-.07534.18248h-.21428v.64285h.64285v-.21428a.10655.10655,0,0,1,.18248-.07534l.42857.42858A.10293.10293,0,0,1,21.5,12Z" style="fill:#3c3c3b"/></svg>