<svg id="Ebene_1" data-name="Ebene 1" xmlns="http://www.w3.org/2000/svg" viewBox="0 0 24 24"><title>side_move_selected</title><path id="move_indicator_selected" data-name="move indicator_selected" d="M21.75,12a.12013.12013,0,0,1-.03711.08789l-.5.5A.125.125,0,0,1,21,12.5v-.25h-.75V13h.25a.1243.1243,0,0,1,.08789.21289l-.5.5a.12263.12263,0,0,1-.17578,0l-.5-.5A.125.125,0,0,1,19.5,13h.25v-.75H19v.25a.1243.1243,0,0,1-.21289.08789l-.5-.5a.12263.12263,0,0,1,0-.17578l.5-.5A.125.125,0,0,1,19,11.5v.25h.75V11H19.5a.1243.1243,0,0,1-.08789-.21289l.5-.5a.12263.12263,0,0,1,.17578,0l.5.5A.125.125,0,0,1,20.5,11h-.25v.75H21V11.5a.1243.1243,0,0,1,.21289-.08789l.5.5A.12013.12013,0,0,1,21.75,12Z" style="fill:#3c3c3b"/></svg>