<?xml version="1.0" encoding="UTF-8" standalone="no"?>
<!-- Created with Inkscape (http://www.inkscape.org/) -->

<svg
   xmlns:dc="http://purl.org/dc/elements/1.1/"
   xmlns:cc="http://creativecommons.org/ns#"
   xmlns:rdf="http://www.w3.org/1999/02/22-rdf-syntax-ns#"
   xmlns:svg="http://www.w3.org/2000/svg"
   xmlns="http://www.w3.org/2000/svg"
   xmlns:sodipodi="http://sodipodi.sourceforge.net/DTD/sodipodi-0.dtd"
   xmlns:inkscape="http://www.inkscape.org/namespaces/inkscape"
   version="1.1"
   id="svg2"
   xml:space="preserve"
   width="130.66667"
   height="130.66667"
   viewBox="0 0 130.66667 130.66667"
   sodipodi:docname="all_gesture_icons_circled.svg"
   inkscape:version="0.92.3 (2405546, 2018-03-11)"><metadata
     id="metadata8"><rdf:RDF><cc:Work
         rdf:about=""><dc:format>image/svg+xml</dc:format><dc:type
           rdf:resource="http://purl.org/dc/dcmitype/StillImage" /><dc:title></dc:title></cc:Work></rdf:RDF></metadata><defs
     id="defs6"><clipPath
       clipPathUnits="userSpaceOnUse"
       id="clipPath18"><path
         d="M 0,98 H 98 V 0 H 0 Z"
         id="path16"
         inkscape:connector-curvature="0" /></clipPath><clipPath
       clipPathUnits="userSpaceOnUse"
       id="clipPath34"><path
         d="M 0,98 H 98 V 0 H 0 Z"
         id="path32"
         inkscape:connector-curvature="0" /></clipPath><clipPath
       clipPathUnits="userSpaceOnUse"
       id="clipPath54"><path
         d="M 0,98 H 98 V 0 H 0 Z"
         id="path52"
         inkscape:connector-curvature="0" /></clipPath><clipPath
       clipPathUnits="userSpaceOnUse"
       id="clipPath94"><path
         d="M 0,98 H 98 V 0 H 0 Z"
         id="path92"
         inkscape:connector-curvature="0" /></clipPath><clipPath
       clipPathUnits="userSpaceOnUse"
       id="clipPath150"><path
         d="M 0,98 H 98 V 0 H 0 Z"
         id="path148"
         inkscape:connector-curvature="0" /></clipPath><clipPath
       clipPathUnits="userSpaceOnUse"
       id="clipPath170"><path
         d="M 0,98 H 98 V 0 H 0 Z"
         id="path168"
         inkscape:connector-curvature="0" /></clipPath><clipPath
       clipPathUnits="userSpaceOnUse"
       id="clipPath202"><path
         d="M 0,98 H 98 V 0 H 0 Z"
         id="path200"
         inkscape:connector-curvature="0" /></clipPath><clipPath
       clipPathUnits="userSpaceOnUse"
       id="clipPath238"><path
         d="M 0,98 H 98 V 0 H 0 Z"
         id="path236"
         inkscape:connector-curvature="0" /></clipPath><clipPath
       clipPathUnits="userSpaceOnUse"
       id="clipPath278"><path
         d="M 0,98 H 98 V 0 H 0 Z"
         id="path276"
         inkscape:connector-curvature="0" /></clipPath><clipPath
       clipPathUnits="userSpaceOnUse"
       id="clipPath314"><path
         d="M 0,98 H 98 V 0 H 0 Z"
         id="path312"
         inkscape:connector-curvature="0" /></clipPath><clipPath
       clipPathUnits="userSpaceOnUse"
       id="clipPath346"><path
         d="M 0,98 H 98 V 0 H 0 Z"
         id="path344"
         inkscape:connector-curvature="0" /></clipPath></defs><sodipodi:namedview
     pagecolor="#ffffff"
     bordercolor="#666666"
     borderopacity="1"
     objecttolerance="10"
     gridtolerance="10"
     guidetolerance="10"
     inkscape:pageopacity="0"
     inkscape:pageshadow="2"
     inkscape:window-width="2560"
     inkscape:window-height="1386"
     id="namedview4"
     showgrid="false"
     inkscape:zoom="9.1989792"
     inkscape:cx="71.529676"
     inkscape:cy="65.333336"
     inkscape:window-x="0"
     inkscape:window-y="0"
     inkscape:window-maximized="1"
     inkscape:current-layer="g10" /><g
     id="g10"
     inkscape:groupmode="layer"
     inkscape:label="all_gesture_icons_circled"
     transform="matrix(1.3333333,0,0,-1.3333333,0,130.66667)"><g
       id="g12"
       style="display:inline"
       inkscape:label="Rahmen"><g
         id="g14"
         clip-path="url(#clipPath18)"><g
           id="g20"
           transform="translate(49.0002,98.0002)"><path
             d="m 0,0 c -27.062,0 -49,-21.938 -49,-49 0,-27.062 21.938,-49 49,-49 27.062,0 49,21.938 49,49 C 49,-21.938 27.062,0 0,0 "
             style="fill:#ffffff;fill-opacity:1;fill-rule:nonzero;stroke:none;stroke-width:2"
             id="path22"
             inkscape:connector-curvature="0" /></g></g></g><g
       id="g196"
       style="display:inline"
       inkscape:label="Swipe Down"><g
         id="g198"
         clip-path="url(#clipPath202)"><g
           id="g204"
           transform="translate(56.8786,50.7106)"><path
             d="m 0,0 c 0,0 -2.31,4.646 -2.355,4.732 -0.901,1.651 -1.212,2.256 -1.569,2.559 -1.481,1.259 -4.742,3.872 -5.255,4.24 -1.811,1.298 -3.272,1.429 -4.227,0.22 -0.215,-0.271 -0.072,-0.353 -0.281,-0.733 -0.118,-0.217 0.455,-0.674 0.713,-0.909"
             style="fill:none;stroke:#3b3b3c;stroke-width:1.81400001;stroke-linecap:round;stroke-linejoin:miter;stroke-miterlimit:10;stroke-dasharray:none;stroke-opacity:1"
             id="path206"
             inkscape:connector-curvature="0" /></g><g
           id="g208"
           transform="translate(60.2887,51.0812)"><path
             d="m 0,0 c -0.787,1.7 -1.025,2.262 -1.456,2.853 -0.688,0.943 -2.2,1.117 -3.738,0.811"
             style="fill:none;stroke:#3b3b3c;stroke-width:1.81400001;stroke-linecap:round;stroke-linejoin:miter;stroke-miterlimit:10;stroke-dasharray:none;stroke-opacity:1"
             id="path210"
             inkscape:connector-curvature="0" /></g><g
           id="g212"
           transform="translate(52.0143,50.1974)"><path
             d="m 0,0 -2.498,5.475 c -0.227,0.485 -1.054,1.399 -1.485,1.73 -2.714,2.084 -5.508,5.053 -7.065,4.861 -1.024,-0.127 -1.874,-1.417 -1.451,-2.303 0.555,-1.16 4.489,-5.347 5.573,-6.965 0.173,-0.257 0.29,-0.546 0.345,-0.849 l 1.107,-6.057 c 0.072,-0.942 0.43,-4.163 0.43,-4.163 0.007,-0.076 -0.629,-1.019 -0.662,-0.949 0,0 -3.037,3.935 -4.02,6.927 -0.417,1.268 -2.481,2.698 -2.732,2.739 -0.718,0.117 -1.771,-0.582 -1.897,-1.438 -0.095,-0.645 0.871,-3.55 1.252,-5.272 0.434,-1.961 4.513,-9.968 7.134,-12.163 2.081,-1.743 4.252,-3.94 6.201,-7.209 0.838,-1.405 1.416,-0.896 1.858,0.666 1.241,4.391 11.634,4.764 13.128,-1.198 0.568,-0.758 -1.319,10.888 -1.439,12.789 -0.216,3.39 -0.975,9.563 -1.258,10.629 -0.786,2.957 -0.932,3.12 -1.332,3.573 -0.535,0.605 -3.42,2.193 -2.87,-0.02"
             style="fill:none;stroke:#3b3b3c;stroke-width:1.81400001;stroke-linecap:round;stroke-linejoin:miter;stroke-miterlimit:10;stroke-dasharray:none;stroke-opacity:1"
             id="path214"
             inkscape:connector-curvature="0" /></g><g
           id="g216"
           transform="translate(28.1413,43.9118)"><path
             d="M 0,0 V 28.901"
             style="fill:#e8e000;fill-opacity:1;fill-rule:nonzero;stroke:none"
             id="path218"
             inkscape:connector-curvature="0" /></g><g
           id="g220"
           transform="translate(25.9382,43.9118)"><path
             d="M 0,0 2.203,28.901 4.406,0 4.574,-2.203 h -4.742 z"
             style="fill:#e8e000;fill-opacity:1;fill-rule:nonzero;stroke:none"
             id="path222"
             inkscape:connector-curvature="0" /></g><g
           id="g224"
           transform="translate(34.2834,42.0612)"><path
             d="m 0,0 -12.062,-0.003 5.954,-7.953 z"
             style="fill:#e8e000;fill-opacity:1;fill-rule:nonzero;stroke:none"
             id="path226"
             inkscape:connector-curvature="0" /></g><g
           id="g228"
           transform="translate(34.2834,42.0612)"><path
             d="m 0,0 -12.062,-0.003 5.954,-7.953 z"
             style="fill:none;stroke:#e8e000;stroke-width:0.236;stroke-linecap:square;stroke-linejoin:miter;stroke-miterlimit:10;stroke-dasharray:none;stroke-opacity:1"
             id="path230"
             inkscape:connector-curvature="0" /></g></g></g></g></svg>
