<?xml version="1.0" encoding="UTF-8" standalone="no"?>
<!-- Created with Inkscape (http://www.inkscape.org/) -->

<svg
   xmlns:dc="http://purl.org/dc/elements/1.1/"
   xmlns:cc="http://creativecommons.org/ns#"
   xmlns:rdf="http://www.w3.org/1999/02/22-rdf-syntax-ns#"
   xmlns:svg="http://www.w3.org/2000/svg"
   xmlns="http://www.w3.org/2000/svg"
   xmlns:sodipodi="http://sodipodi.sourceforge.net/DTD/sodipodi-0.dtd"
   xmlns:inkscape="http://www.inkscape.org/namespaces/inkscape"
   version="1.1"
   id="svg2"
   xml:space="preserve"
   width="130.66667"
   height="130.66667"
   viewBox="0 0 130.66667 130.66667"
   sodipodi:docname="all_gesture_icons_circled.svg"
   inkscape:version="0.92.3 (2405546, 2018-03-11)"><metadata
     id="metadata8"><rdf:RDF><cc:Work
         rdf:about=""><dc:format>image/svg+xml</dc:format><dc:type
           rdf:resource="http://purl.org/dc/dcmitype/StillImage" /><dc:title></dc:title></cc:Work></rdf:RDF></metadata><defs
     id="defs6"><clipPath
       clipPathUnits="userSpaceOnUse"
       id="clipPath18"><path
         d="M 0,98 H 98 V 0 H 0 Z"
         id="path16"
         inkscape:connector-curvature="0" /></clipPath><clipPath
       clipPathUnits="userSpaceOnUse"
       id="clipPath34"><path
         d="M 0,98 H 98 V 0 H 0 Z"
         id="path32"
         inkscape:connector-curvature="0" /></clipPath><clipPath
       clipPathUnits="userSpaceOnUse"
       id="clipPath54"><path
         d="M 0,98 H 98 V 0 H 0 Z"
         id="path52"
         inkscape:connector-curvature="0" /></clipPath><clipPath
       clipPathUnits="userSpaceOnUse"
       id="clipPath94"><path
         d="M 0,98 H 98 V 0 H 0 Z"
         id="path92"
         inkscape:connector-curvature="0" /></clipPath><clipPath
       clipPathUnits="userSpaceOnUse"
       id="clipPath150"><path
         d="M 0,98 H 98 V 0 H 0 Z"
         id="path148"
         inkscape:connector-curvature="0" /></clipPath><clipPath
       clipPathUnits="userSpaceOnUse"
       id="clipPath170"><path
         d="M 0,98 H 98 V 0 H 0 Z"
         id="path168"
         inkscape:connector-curvature="0" /></clipPath><clipPath
       clipPathUnits="userSpaceOnUse"
       id="clipPath202"><path
         d="M 0,98 H 98 V 0 H 0 Z"
         id="path200"
         inkscape:connector-curvature="0" /></clipPath><clipPath
       clipPathUnits="userSpaceOnUse"
       id="clipPath238"><path
         d="M 0,98 H 98 V 0 H 0 Z"
         id="path236"
         inkscape:connector-curvature="0" /></clipPath><clipPath
       clipPathUnits="userSpaceOnUse"
       id="clipPath278"><path
         d="M 0,98 H 98 V 0 H 0 Z"
         id="path276"
         inkscape:connector-curvature="0" /></clipPath><clipPath
       clipPathUnits="userSpaceOnUse"
       id="clipPath314"><path
         d="M 0,98 H 98 V 0 H 0 Z"
         id="path312"
         inkscape:connector-curvature="0" /></clipPath><clipPath
       clipPathUnits="userSpaceOnUse"
       id="clipPath346"><path
         d="M 0,98 H 98 V 0 H 0 Z"
         id="path344"
         inkscape:connector-curvature="0" /></clipPath></defs><sodipodi:namedview
     pagecolor="#ffffff"
     bordercolor="#666666"
     borderopacity="1"
     objecttolerance="10"
     gridtolerance="10"
     guidetolerance="10"
     inkscape:pageopacity="0"
     inkscape:pageshadow="2"
     inkscape:window-width="2560"
     inkscape:window-height="1386"
     id="namedview4"
     showgrid="false"
     inkscape:zoom="9.1989792"
     inkscape:cx="71.529676"
     inkscape:cy="65.333336"
     inkscape:window-x="0"
     inkscape:window-y="0"
     inkscape:window-maximized="1"
     inkscape:current-layer="g10" /><g
     id="g10"
     inkscape:groupmode="layer"
     inkscape:label="all_gesture_icons_circled"
     transform="matrix(1.3333333,0,0,-1.3333333,0,130.66667)"><g
       id="g12"
       style="display:inline"
       inkscape:label="Rahmen"><g
         id="g14"
         clip-path="url(#clipPath18)"><g
           id="g20"
           transform="translate(49.0002,98.0002)"><path
             d="m 0,0 c -27.062,0 -49,-21.938 -49,-49 0,-27.062 21.938,-49 49,-49 27.062,0 49,21.938 49,49 C 49,-21.938 27.062,0 0,0 "
             style="fill:#ffffff;fill-opacity:1;fill-rule:nonzero;stroke:none;stroke-width:2"
             id="path22"
             inkscape:connector-curvature="0" /></g></g></g><g
       id="g340"
       style="display:inline"
       inkscape:label="Swipe R"><g
         id="g342"
         clip-path="url(#clipPath346)"><g
           id="g348"
           transform="translate(67.071,50.6974)"><path
             d="M 0,0 C 3.422,2.809 0.586,5.741 -2.268,3.996"
             style="fill:none;stroke:#3b3b3c;stroke-width:1.81400001;stroke-linecap:round;stroke-linejoin:miter;stroke-miterlimit:10;stroke-dasharray:none;stroke-opacity:1"
             id="path350"
             inkscape:connector-curvature="0" /></g><g
           id="g352"
           transform="translate(53.5563,41.5387)"><path
             d="M 0,0 13.515,9.159"
             style="fill:none;stroke:#3b3b3c;stroke-width:1.81400001;stroke-linecap:round;stroke-linejoin:miter;stroke-miterlimit:10;stroke-dasharray:none;stroke-opacity:1"
             id="path354"
             inkscape:connector-curvature="0" /></g><g
           id="g356"
           transform="translate(42.0143,45.9782)"><path
             d="m 0,0 3.892,1.958 15.081,9.517 C 22.4,13.19 24.524,9.333 21.526,7.482 17.462,4.973 10.423,0.325 8.456,-1.082"
             style="fill:none;stroke:#3b3b3c;stroke-width:1.81400001;stroke-linecap:round;stroke-linejoin:miter;stroke-miterlimit:10;stroke-dasharray:none;stroke-opacity:1"
             id="path358"
             inkscape:connector-curvature="0" /></g><g
           id="g360"
           transform="translate(56.9792,37.985)"><path
             d="m 0,0 c -0.42,-0.575 1.187,-2.463 0.781,-3.905 -0.963,-3.426 -8.226,-4.618 -11.796,-9.069 -0.382,-0.476 -0.987,-3.069 -1.727,-4.508 -0.154,-0.301 -0.634,-0.025 -0.921,0.491 -2.515,4.515 -7.197,4.407 -11.284,0.45 -0.435,-0.421 -0.531,-0.189 -0.621,-0.019 -0.112,0.213 -0.144,1.575 0.001,2.771 0.069,0.573 0.38,2.23 0.564,2.778 0.586,1.74 1.08,4.125 1.08,4.125 0.17,0.797 0.563,5.75 0.509,8.615 -0.032,1.706 -0.066,5.246 0.945,6.586 3.782,5.017 7.526,10.194 9.886,9.208 0.919,-0.385 1.356,-1.217 0.712,-2.74 -0.786,-1.86 -2.748,-3.477 -3.095,-6.826"
             style="fill:none;stroke:#3b3b3c;stroke-width:1.81400001;stroke-linecap:butt;stroke-linejoin:miter;stroke-miterlimit:10;stroke-dasharray:none;stroke-opacity:1"
             id="path362"
             inkscape:connector-curvature="0" /></g><g
           id="g364"
           transform="translate(56.4137,43.4128)"><path
             d="M 0,0 C 1.106,-0.764 1.848,-2.672 1.644,-3.708 1.438,-4.746 0.563,-5.379 0.562,-5.385"
             style="fill:none;stroke:#3b3b3c;stroke-width:1.81400001;stroke-linecap:round;stroke-linejoin:round;stroke-miterlimit:10;stroke-dasharray:none;stroke-opacity:1"
             id="path366"
             inkscape:connector-curvature="0" /></g><g
           id="g368"
           transform="translate(60.9284,69.8195)"><path
             d="m 0,0 c -1.567,-0.795 -3.08,-1.171 -4.566,-1.448 -1.487,-0.265 -2.95,-0.396 -4.402,-0.457 -2.902,-0.12 -5.76,0.057 -8.585,0.412 -2.821,0.375 -5.615,0.939 -8.314,1.826 -1.346,0.449 -2.672,0.982 -3.906,1.695 -1.209,0.71 -2.434,1.615 -2.978,2.931 0.712,-1.224 1.98,-1.908 3.222,-2.437 1.263,-0.522 2.597,-0.865 3.942,-1.124 2.695,-0.506 5.444,-0.691 8.176,-0.692 2.732,0.017 5.462,0.212 8.099,0.676 1.317,0.231 2.612,0.526 3.833,0.916 1.211,0.388 2.373,0.89 3.222,1.487 L -0.448,5.054 1.97,0.999 Z"
             style="fill:#e8e000;fill-opacity:1;fill-rule:nonzero;stroke:none"
             id="path370"
             inkscape:connector-curvature="0" /></g><g
           id="g372"
           transform="translate(58.4176,78.1486)"><path
             d="m 0,0 6.308,-10.282 5.096,10.109 z"
             style="fill:#e8e000;fill-opacity:1;fill-rule:nonzero;stroke:none"
             id="path374"
             inkscape:connector-curvature="0" /></g><g
           id="g376"
           transform="translate(58.4176,78.1486)"><path
             d="m 0,0 6.308,-10.282 5.096,10.109 z"
             style="fill:none;stroke:#e8e000;stroke-width:0.259;stroke-linecap:square;stroke-linejoin:miter;stroke-miterlimit:10;stroke-dasharray:none;stroke-opacity:1"
             id="path378"
             inkscape:connector-curvature="0" /></g></g></g></g></svg>