<?xml version="1.0" encoding="UTF-8" standalone="no"?>
<!-- Created with Inkscape (http://www.inkscape.org/) -->

<svg
   xmlns:dc="http://purl.org/dc/elements/1.1/"
   xmlns:cc="http://creativecommons.org/ns#"
   xmlns:rdf="http://www.w3.org/1999/02/22-rdf-syntax-ns#"
   xmlns:svg="http://www.w3.org/2000/svg"
   xmlns="http://www.w3.org/2000/svg"
   xmlns:sodipodi="http://sodipodi.sourceforge.net/DTD/sodipodi-0.dtd"
   xmlns:inkscape="http://www.inkscape.org/namespaces/inkscape"
   version="1.1"
   id="svg2"
   xml:space="preserve"
   width="130.66667"
   height="130.66667"
   viewBox="0 0 130.66667 130.66667"
   sodipodi:docname="all_gesture_icons_circled.svg"
   inkscape:version="0.92.3 (2405546, 2018-03-11)"><metadata
     id="metadata8"><rdf:RDF><cc:Work
         rdf:about=""><dc:format>image/svg+xml</dc:format><dc:type
           rdf:resource="http://purl.org/dc/dcmitype/StillImage" /><dc:title></dc:title></cc:Work></rdf:RDF></metadata><defs
     id="defs6"><clipPath
       clipPathUnits="userSpaceOnUse"
       id="clipPath18"><path
         d="M 0,98 H 98 V 0 H 0 Z"
         id="path16"
         inkscape:connector-curvature="0" /></clipPath><clipPath
       clipPathUnits="userSpaceOnUse"
       id="clipPath34"><path
         d="M 0,98 H 98 V 0 H 0 Z"
         id="path32"
         inkscape:connector-curvature="0" /></clipPath><clipPath
       clipPathUnits="userSpaceOnUse"
       id="clipPath54"><path
         d="M 0,98 H 98 V 0 H 0 Z"
         id="path52"
         inkscape:connector-curvature="0" /></clipPath><clipPath
       clipPathUnits="userSpaceOnUse"
       id="clipPath94"><path
         d="M 0,98 H 98 V 0 H 0 Z"
         id="path92"
         inkscape:connector-curvature="0" /></clipPath><clipPath
       clipPathUnits="userSpaceOnUse"
       id="clipPath150"><path
         d="M 0,98 H 98 V 0 H 0 Z"
         id="path148"
         inkscape:connector-curvature="0" /></clipPath><clipPath
       clipPathUnits="userSpaceOnUse"
       id="clipPath170"><path
         d="M 0,98 H 98 V 0 H 0 Z"
         id="path168"
         inkscape:connector-curvature="0" /></clipPath><clipPath
       clipPathUnits="userSpaceOnUse"
       id="clipPath202"><path
         d="M 0,98 H 98 V 0 H 0 Z"
         id="path200"
         inkscape:connector-curvature="0" /></clipPath><clipPath
       clipPathUnits="userSpaceOnUse"
       id="clipPath238"><path
         d="M 0,98 H 98 V 0 H 0 Z"
         id="path236"
         inkscape:connector-curvature="0" /></clipPath><clipPath
       clipPathUnits="userSpaceOnUse"
       id="clipPath278"><path
         d="M 0,98 H 98 V 0 H 0 Z"
         id="path276"
         inkscape:connector-curvature="0" /></clipPath><clipPath
       clipPathUnits="userSpaceOnUse"
       id="clipPath314"><path
         d="M 0,98 H 98 V 0 H 0 Z"
         id="path312"
         inkscape:connector-curvature="0" /></clipPath><clipPath
       clipPathUnits="userSpaceOnUse"
       id="clipPath346"><path
         d="M 0,98 H 98 V 0 H 0 Z"
         id="path344"
         inkscape:connector-curvature="0" /></clipPath></defs><sodipodi:namedview
     pagecolor="#ffffff"
     bordercolor="#666666"
     borderopacity="1"
     objecttolerance="10"
     gridtolerance="10"
     guidetolerance="10"
     inkscape:pageopacity="0"
     inkscape:pageshadow="2"
     inkscape:window-width="2560"
     inkscape:window-height="1386"
     id="namedview4"
     showgrid="false"
     inkscape:zoom="9.1989792"
     inkscape:cx="71.529676"
     inkscape:cy="65.333336"
     inkscape:window-x="0"
     inkscape:window-y="0"
     inkscape:window-maximized="1"
     inkscape:current-layer="g10" /><g
     id="g10"
     inkscape:groupmode="layer"
     inkscape:label="all_gesture_icons_circled"
     transform="matrix(1.3333333,0,0,-1.3333333,0,130.66667)"><g
       id="g12"
       style="display:inline"
       inkscape:label="Rahmen"><g
         id="g14"
         clip-path="url(#clipPath18)"><g
           id="g20"
           transform="translate(49.0002,98.0002)"><path
             d="m 0,0 c -27.062,0 -49,-21.938 -49,-49 0,-27.062 21.938,-49 49,-49 27.062,0 49,21.938 49,49 C 49,-21.938 27.062,0 0,0 "
             style="fill:#ffffff;fill-opacity:1;fill-rule:nonzero;stroke:none;stroke-width:2"
             id="path22"
             inkscape:connector-curvature="0" /></g></g></g><g
       id="g272"
       style="display:inline"
       inkscape:label="Swipe L"><g
         id="g274"
         clip-path="url(#clipPath278)"><g
           id="g280"
           transform="translate(39.3688,74.1149)"><path
             d="m 0,0 c 2.153,-0.964 4.716,-1.583 7.259,-2.006 2.562,-0.42 5.184,-0.633 7.805,-0.618 2.621,0.019 5.257,0.251 7.791,0.925 2.495,0.674 5.056,1.817 6.513,4.135 C 28.822,1.202 27.89,0.139 26.806,-0.707 25.717,-1.554 24.483,-2.202 23.215,-2.74 20.666,-3.808 17.957,-4.425 15.232,-4.82 12.503,-5.211 9.739,-5.368 6.958,-5.297 4.167,-5.208 1.386,-4.969 -1.526,-4.134 l -2.123,0.609 1.634,4.427 z"
             style="fill:#e8e000;fill-opacity:1;fill-rule:nonzero;stroke:none"
             id="path282"
             inkscape:connector-curvature="0" /></g><g
           id="g284"
           transform="translate(38.7873,78.6291)"><path
             d="m 0,0 -4.319,-11.262 -6.862,9.005 z"
             style="fill:#e8e000;fill-opacity:1;fill-rule:nonzero;stroke:none"
             id="path286"
             inkscape:connector-curvature="0" /></g><g
           id="g288"
           transform="translate(38.7873,78.6291)"><path
             d="m 0,0 -4.319,-11.262 -6.862,9.005 z"
             style="fill:none;stroke:#e8e000;stroke-width:0.259;stroke-linecap:square;stroke-linejoin:miter;stroke-miterlimit:10;stroke-dasharray:none;stroke-opacity:1"
             id="path290"
             inkscape:connector-curvature="0" /></g><g
           id="g292"
           transform="translate(37.8835,28.8981)"><path
             d="m 0,0 c 0.789,-1.917 12.956,-7.546 21.266,-8.333 0.984,-0.094 1.971,0.212 2.726,0.85 2.247,1.896 3.781,4.818 4.563,6.139 0.107,0.183 0.209,0.367 0.289,0.565 1.191,2.921 0.274,7.538 -0.047,10.492 -0.088,0.813 -0.576,2.235 -0.948,2.943 -1.176,2.242 -4.771,7.584 -4.548,15.032 0.066,2.236 -2.427,0.696 -3.11,0.306 -2.893,-1.652 -1.754,-8.657 -2.588,-12.893 -0.262,-1.33 -1.642,-2.104 -2.812,-1.609 l -19.312,7.966 c -3.73,1.041 -4.597,-2.562 -1.631,-4.008 l 16.383,-7.079"
             style="fill:none;stroke:#3b3b3c;stroke-width:1.81400001;stroke-linecap:round;stroke-linejoin:miter;stroke-miterlimit:10;stroke-dasharray:none;stroke-opacity:1"
             id="path294"
             inkscape:connector-curvature="0" /></g><g
           id="g296"
           transform="translate(29.5431,47.9089)"><path
             d="m 0,0 c -3.032,1.058 -4.408,-1.218 -3.771,-2.859 0.163,-0.418 0.598,-0.93 0.98,-1.113 l 16.604,-7.601"
             style="fill:none;stroke:#3b3b3c;stroke-width:1.81400001;stroke-linecap:round;stroke-linejoin:miter;stroke-miterlimit:10;stroke-dasharray:none;stroke-opacity:1"
             id="path298"
             inkscape:connector-curvature="0" /></g><g
           id="g300"
           transform="translate(38.5295,37.1706)"><path
             d="M 0,0 C -0.022,0.001 -0.649,0.131 -0.669,0.135 -3.071,0.59 -3.784,-3.281 -1.414,-3.99 l 12.449,-2.32 c 2.482,-0.267 3.414,3.551 0.757,3.95 -0.125,0.018 -12.28,2.462 -12.438,2.492"
             style="fill:none;stroke:#3b3b3c;stroke-width:1.81400001;stroke-linecap:round;stroke-linejoin:miter;stroke-miterlimit:10;stroke-dasharray:none;stroke-opacity:1"
             id="path302"
             inkscape:connector-curvature="0" /></g><g
           id="g304"
           transform="translate(49.7204,30.8317)"><path
             d="m 0,0 c 3.334,-0.545 2.642,-4.873 -0.727,-4.146 -0.167,0.037 -8.28,1.417 -10.316,1.768 -2.301,0.396 -1.662,4.694 0.776,4.262"
             style="fill:none;stroke:#3b3b3c;stroke-width:1.81400001;stroke-linecap:round;stroke-linejoin:miter;stroke-miterlimit:10;stroke-dasharray:none;stroke-opacity:1"
             id="path306"
             inkscape:connector-curvature="0" /></g></g></g></g></svg>