<?xml version="1.0" encoding="UTF-8" standalone="no"?>
<!-- Created with Inkscape (http://www.inkscape.org/) -->

<svg
   xmlns:dc="http://purl.org/dc/elements/1.1/"
   xmlns:cc="http://creativecommons.org/ns#"
   xmlns:rdf="http://www.w3.org/1999/02/22-rdf-syntax-ns#"
   xmlns:svg="http://www.w3.org/2000/svg"
   xmlns="http://www.w3.org/2000/svg"
   xmlns:sodipodi="http://sodipodi.sourceforge.net/DTD/sodipodi-0.dtd"
   xmlns:inkscape="http://www.inkscape.org/namespaces/inkscape"
   version="1.1"
   id="svg2"
   xml:space="preserve"
   width="130.66667"
   height="130.66667"
   viewBox="0 0 130.66667 130.66667"
   sodipodi:docname="all_gesture_icons_circled.svg"
   inkscape:version="0.92.3 (2405546, 2018-03-11)"><metadata
     id="metadata8"><rdf:RDF><cc:Work
         rdf:about=""><dc:format>image/svg+xml</dc:format><dc:type
           rdf:resource="http://purl.org/dc/dcmitype/StillImage" /><dc:title></dc:title></cc:Work></rdf:RDF></metadata><defs
     id="defs6"><clipPath
       clipPathUnits="userSpaceOnUse"
       id="clipPath18"><path
         d="M 0,98 H 98 V 0 H 0 Z"
         id="path16"
         inkscape:connector-curvature="0" /></clipPath><clipPath
       clipPathUnits="userSpaceOnUse"
       id="clipPath34"><path
         d="M 0,98 H 98 V 0 H 0 Z"
         id="path32"
         inkscape:connector-curvature="0" /></clipPath><clipPath
       clipPathUnits="userSpaceOnUse"
       id="clipPath54"><path
         d="M 0,98 H 98 V 0 H 0 Z"
         id="path52"
         inkscape:connector-curvature="0" /></clipPath><clipPath
       clipPathUnits="userSpaceOnUse"
       id="clipPath94"><path
         d="M 0,98 H 98 V 0 H 0 Z"
         id="path92"
         inkscape:connector-curvature="0" /></clipPath><clipPath
       clipPathUnits="userSpaceOnUse"
       id="clipPath150"><path
         d="M 0,98 H 98 V 0 H 0 Z"
         id="path148"
         inkscape:connector-curvature="0" /></clipPath><clipPath
       clipPathUnits="userSpaceOnUse"
       id="clipPath170"><path
         d="M 0,98 H 98 V 0 H 0 Z"
         id="path168"
         inkscape:connector-curvature="0" /></clipPath><clipPath
       clipPathUnits="userSpaceOnUse"
       id="clipPath202"><path
         d="M 0,98 H 98 V 0 H 0 Z"
         id="path200"
         inkscape:connector-curvature="0" /></clipPath><clipPath
       clipPathUnits="userSpaceOnUse"
       id="clipPath238"><path
         d="M 0,98 H 98 V 0 H 0 Z"
         id="path236"
         inkscape:connector-curvature="0" /></clipPath><clipPath
       clipPathUnits="userSpaceOnUse"
       id="clipPath278"><path
         d="M 0,98 H 98 V 0 H 0 Z"
         id="path276"
         inkscape:connector-curvature="0" /></clipPath><clipPath
       clipPathUnits="userSpaceOnUse"
       id="clipPath314"><path
         d="M 0,98 H 98 V 0 H 0 Z"
         id="path312"
         inkscape:connector-curvature="0" /></clipPath><clipPath
       clipPathUnits="userSpaceOnUse"
       id="clipPath346"><path
         d="M 0,98 H 98 V 0 H 0 Z"
         id="path344"
         inkscape:connector-curvature="0" /></clipPath></defs><sodipodi:namedview
     pagecolor="#ffffff"
     bordercolor="#666666"
     borderopacity="1"
     objecttolerance="10"
     gridtolerance="10"
     guidetolerance="10"
     inkscape:pageopacity="0"
     inkscape:pageshadow="2"
     inkscape:window-width="2560"
     inkscape:window-height="1386"
     id="namedview4"
     showgrid="false"
     inkscape:zoom="9.1989792"
     inkscape:cx="71.529676"
     inkscape:cy="65.333336"
     inkscape:window-x="0"
     inkscape:window-y="0"
     inkscape:window-maximized="1"
     inkscape:current-layer="g10" /><g
     id="g10"
     inkscape:groupmode="layer"
     inkscape:label="all_gesture_icons_circled"
     transform="matrix(1.3333333,0,0,-1.3333333,0,130.66667)"><g
       id="g12"
       style="display:inline"
       inkscape:label="Rahmen"><g
         id="g14"
         clip-path="url(#clipPath18)"><g
           id="g20"
           transform="translate(49.0002,98.0002)"><path
             d="m 0,0 c -27.062,0 -49,-21.938 -49,-49 0,-27.062 21.938,-49 49,-49 27.062,0 49,21.938 49,49 C 49,-21.938 27.062,0 0,0 "
             style="fill:#ffffff;fill-opacity:1;fill-rule:nonzero;stroke:none;stroke-width:2"
             id="path22"
             inkscape:connector-curvature="0" /></g></g></g><g
       id="g4941"
       inkscape:label="X Mark"
       style="display:inline"><g
         style="display:inline"
         id="g4907"><g
           id="g136"
           transform="matrix(1.1049352,0,0,1.1049352,21.391685,70.346815)"
           style="display:inline;stroke-width:0.90503043"><path
             d="M 0,0 17.736,-17.736"
             style="fill:#e8e000;fill-opacity:1;fill-rule:nonzero;stroke:#e8e000;stroke-width:2.35398412;stroke-linecap:square;stroke-linejoin:miter;stroke-miterlimit:10;stroke-dasharray:none;stroke-opacity:1"
             id="path138"
             inkscape:connector-curvature="0" /></g><g
           id="g140"
           transform="translate(40.9098,70.2682)"
           style="display:inline"><path
             d="M 0,0 -19.44,-19.44"
             style="fill:#e8e000;fill-opacity:1;fill-rule:nonzero;stroke:#e8e000;stroke-width:2.71199989;stroke-linecap:square;stroke-linejoin:miter;stroke-miterlimit:10;stroke-dasharray:none;stroke-opacity:1"
             id="path142"
             inkscape:connector-curvature="0" /></g></g><g
         transform="translate(6.3594014,-4.7287856)"
         style="display:inline"
         id="g144"><g
           clip-path="url(#clipPath150)"
           id="g146"><g
             transform="translate(55.5407,53.4889)"
             id="g152"><path
               inkscape:connector-curvature="0"
               id="path154"
               style="fill:none;stroke:#3b3b3c;stroke-width:1.81400001;stroke-linecap:round;stroke-linejoin:miter;stroke-miterlimit:10;stroke-dasharray:none;stroke-opacity:1"
               d="M 0,0 -2.13,4.385 C -3.587,5.927 -6.253,4.591 -6.253,4.591" /></g><g
             transform="translate(59.7321,52.9401)"
             id="g156"><path
               inkscape:connector-curvature="0"
               id="path158"
               style="fill:none;stroke:#3b3b3c;stroke-width:1.81400001;stroke-linecap:round;stroke-linejoin:miter;stroke-miterlimit:10;stroke-dasharray:none;stroke-opacity:1"
               d="m 0,0 c -0.894,1.782 -1.306,2.604 -2.199,4.18 -0.57,1.004 -2.766,1.336 -4.26,1.028" /></g><g
             transform="translate(51.487,53.7634)"
             id="g160"><path
               inkscape:connector-curvature="0"
               id="path162"
               style="fill:none;stroke:#3b3b3c;stroke-width:1.81400001;stroke-linecap:round;stroke-linejoin:miter;stroke-miterlimit:10;stroke-dasharray:none;stroke-opacity:1"
               d="m 0,0 -1.749,3.439 c -1.481,3.619 -8.473,-1.329 -9.776,-2.958 -1.082,-1.353 0.584,-2.569 1.46,-2.381 1.479,0.317 3.52,1.143 3.821,0.263 l 0.765,-3.638 c 0.069,-0.942 0.413,-4.163 0.413,-4.163 0.007,-0.076 -0.612,-1.019 -0.644,-0.95 0,0 -3.152,4.873 -3.256,5.353 -0.243,1.134 -0.465,2.333 -1.34,2.809 -0.378,0.206 -0.593,0.413 -1.408,0.549 -0.697,0.115 -1.32,-0.24 -1.443,-1.096 -0.093,-0.646 -0.78,-2.973 -0.412,-4.694 0.42,-1.961 5.051,-9.935 7.594,-12.128 2.018,-1.741 7.06,-6.154 8.95,-9.422 0.811,-1.403 1.373,-0.894 1.803,0.668 1.21,4.394 11.302,4.778 12.745,-1.183 0.552,-0.757 -2.364,7 -2.649,8.839 -0.026,0.171 -0.353,3.422 -0.361,3.596 l 0.308,6.784 c 0,1.129 -1.086,4.275 -1.099,4.316 -0.482,1.439 -0.756,2.878 -1.306,4.419 -0.241,0.677 -1.572,4.137 -5.051,3.906" /></g></g></g></g></g></svg>